<?xml version="1.0" encoding="utf-8"?>
<!-- Generator: Adobe Illustrator 25.0.0, SVG Export Plug-In . SVG Version: 6.00 Build 0)  -->
<svg version="1.1" id="Layer_1" xmlns="http://www.w3.org/2000/svg" xmlns:xlink="http://www.w3.org/1999/xlink" x="0px" y="0px"
	 viewBox="0 0 378 174.4" style="enable-background:new 0 0 378 174.4;" xml:space="preserve">
<style type="text/css">
	.st0{fill:#FFFFFF;}
	.st1{fill:#333333;}
	.st2{fill:#F48630;}
	.st3{fill:#B24AA3;}
	.st4{fill:#1BA1B3;}
</style>
<g>
	<g>
		<path class="st1" d="M7.4,147.3h7.7c1.8,0,3,0.3,3.9,1.1c1,0.8,1.6,2,1.6,3.4c0,1.4-0.6,2.7-1.6,3.5c-1,0.7-2.2,1-4.2,1H9.2v6.3
			H7.4V147.3z M14.5,154.9c1.5,0,2.3-0.1,3-0.5c0.9-0.5,1.4-1.3,1.4-2.6c0-2-1.3-3.1-3.8-3.1h-6v6.1H14.5z"/>
		<path class="st1" d="M35.4,157.1c0,3.3-2.8,5.8-6.6,5.8c-3.9,0-6.6-2.4-6.6-5.9c0-3.5,2.7-6,6.6-6
			C32.7,151.1,35.4,153.5,35.4,157.1z M23.8,157c0,2.7,2.1,4.6,5,4.6c2.8,0,4.9-1.9,4.9-4.6c0-2.7-2-4.7-4.9-4.7
			C25.9,152.4,23.8,154.3,23.8,157z"/>
		<path class="st1" d="M49.9,162.6l-2.9-7.8c-0.3-0.8-0.4-1.3-0.7-2.4c-0.3,1.2-0.4,1.7-0.7,2.4l-2.8,7.8h-2l-4.3-11.2h1.7L41,159
			c0.2,0.6,0.4,1.3,0.8,2.6c0.3-1.2,0.5-1.9,0.8-2.6l2.7-7.6h2L50,159c0.3,0.7,0.5,1.3,0.8,2.6c0.2-1.1,0.4-1.5,0.7-2.6l2.8-7.6h1.7
			l-4.3,11.2H49.9z"/>
		<path class="st1" d="M69.6,159.1c-0.4,1-0.7,1.5-1.3,2.1c-1.1,1.1-2.9,1.7-4.7,1.7c-3.8,0-6.3-2.4-6.3-5.9c0-3.5,2.6-5.9,6.4-5.9
			c2.4,0,4.4,1,5.5,2.8c0.6,1,0.8,1.9,0.9,3.5H58.8c0.2,1.5,0.6,2.4,1.5,3.1c0.8,0.7,2,1.1,3.3,1.1c2,0,3.5-0.8,4.3-2.5H69.6z
			 M68.4,156.2c-0.2-1-0.4-1.5-0.8-2.1c-0.8-1.1-2.3-1.7-4-1.7c-1.9,0-3.5,0.8-4.2,2.2c-0.3,0.5-0.4,0.9-0.5,1.6H68.4z"/>
		<path class="st1" d="M73.1,162.6v-11.2h1.5v1.2c0,0.3,0,0.6-0.1,1.1c1-1.8,2.1-2.5,4-2.5c0.6,0,0.9,0,1.6,0.2v1.3
			c-0.9-0.2-1.2-0.2-1.7-0.2c-1.5,0-2.9,0.8-3.5,2.2c-0.2,0.5-0.3,0.6-0.3,1.6v6.2H73.1z"/>
		<path class="st1" d="M93.7,159.1c-0.4,1-0.7,1.5-1.3,2.1c-1.1,1.1-2.9,1.7-4.7,1.7c-3.8,0-6.3-2.4-6.3-5.9c0-3.5,2.6-5.9,6.4-5.9
			c2.4,0,4.4,1,5.5,2.8c0.6,1,0.8,1.9,0.9,3.5H83c0.2,1.5,0.6,2.4,1.5,3.1c0.8,0.7,2,1.1,3.3,1.1c2,0,3.5-0.8,4.3-2.5H93.7z
			 M92.5,156.2c-0.2-1-0.4-1.5-0.8-2.1c-0.8-1.1-2.3-1.7-4-1.7c-1.9,0-3.5,0.8-4.2,2.2c-0.3,0.5-0.4,0.9-0.5,1.6H92.5z"/>
		<path class="st1" d="M107.9,162.6v-2.3c-0.5,0.8-0.9,1.1-1.3,1.5c-0.9,0.7-2.2,1.1-3.6,1.1c-3.7,0-6.4-2.6-6.4-5.9
			c0-3.3,2.8-5.9,6.4-5.9c2.2,0,3.9,0.9,4.9,2.6V153v-1.3v-4.3h1.6v15.3H107.9z M98.2,157c0,2.6,2.1,4.6,4.9,4.6
			c2.7,0,4.9-2,4.9-4.6c0-2.7-2.1-4.6-4.9-4.6C100.2,152.4,98.2,154.3,98.2,157z"/>
		<path class="st1" d="M119.8,162.6v-15.3h1.6v6.4c0.6-0.9,1-1.3,1.7-1.7c0.9-0.6,2-0.9,3.3-0.9c3.7,0,6.5,2.6,6.5,5.9
			c0,3.3-2.8,5.9-6.5,5.9c-1.5,0-2.8-0.5-3.8-1.3c-0.4-0.4-0.7-0.7-1.2-1.4v2.4H119.8z M121.3,156.8c0,2.7,2.1,4.8,4.9,4.8
			c2.8,0,4.9-1.9,4.9-4.6s-2.1-4.6-4.9-4.6C123.4,152.4,121.3,154.3,121.3,156.8z"/>
		<path class="st1" d="M134.9,165.2c0.7,0.1,1.1,0.2,1.6,0.2c1.2,0,1.8-0.3,2.3-1.3l0.8-1.5l-5.9-11.2h1.8l3.7,7.2
			c0.5,1,0.8,1.6,1.2,2.7c0.7-1.7,0.9-2.1,1.2-2.7l3.7-7.2h1.7l-6.2,12.3c-0.7,1.4-1.1,2-1.6,2.4c-0.6,0.5-1.4,0.7-2.6,0.7
			c-0.5,0-0.9,0-1.6-0.1V165.2z"/>
		<path class="st1" d="M158.3,157.9l-2.4,4.7H154l7.8-15.3h2.1l7.8,15.3h-2l-2.3-4.7H158.3z M163.6,150.3c-0.5-0.9-0.6-1.3-0.8-2
			c-0.2,0.8-0.4,1.2-0.8,2l-3.1,6.2h7.8L163.6,150.3z"/>
		<path class="st1" d="M177.6,157.9l-2.4,4.7h-1.9l7.8-15.3h2.1l7.8,15.3h-2l-2.3-4.7H177.6z M182.9,150.3c-0.5-0.9-0.6-1.3-0.8-2
			c-0.2,0.8-0.4,1.2-0.8,2l-3.1,6.2h7.8L182.9,150.3z"/>
		<path class="st1" d="M193.4,147.3h7.7c1.8,0,3,0.3,3.9,1.1c1,0.8,1.6,2,1.6,3.4c0,1.4-0.6,2.7-1.6,3.5c-1,0.7-2.2,1-4.2,1h-5.6
			v6.3h-1.7V147.3z M200.4,154.9c1.5,0,2.3-0.1,3-0.5c0.9-0.5,1.4-1.3,1.4-2.6c0-2-1.3-3.1-3.8-3.1h-6v6.1H200.4z"/>
		<path class="st1" d="M224.4,162.6l-0.2-1.7v-0.1v-0.7v-0.4c-1.2,2.2-3.4,3.2-6.5,3.2c-5.4,0-8.9-3.1-8.9-7.9c0-2.6,1.1-4.9,3-6.3
			c1.5-1.1,3.5-1.7,5.9-1.7c2.5,0,4.5,0.7,6,2c1,0.9,1.4,1.7,1.8,3.1h-1.8c-0.8-2.4-3-3.8-6-3.8c-4.4,0-7.2,2.6-7.2,6.7
			c0,4,2.7,6.5,7,6.5c2.3,0,4.1-0.8,5.3-2.2c0.8-1,1.1-1.9,1.2-3.3h-5.5v-1.3h7.1v7.9H224.4z"/>
		<path class="st1" d="M231.7,163.1c-0.1,1.6-0.6,2.4-2,2.8V165c0.8-0.4,1-0.8,1-1.9v-0.5h-1v-1.8h2V163.1z"/>
		<path class="st1" d="M254.2,151.6c-0.2-2.2-1.9-3.3-5-3.3c-3,0-4.9,1.2-4.9,3c0,0.9,0.4,1.5,1.2,1.9c0.5,0.2,1.2,0.4,2.4,0.6
			l2.8,0.4c2.3,0.4,3.4,0.7,4.2,1.3c0.9,0.6,1.4,1.6,1.4,2.8c0,2.8-2.6,4.6-6.9,4.6c-3.1,0-5.4-0.9-6.5-2.5
			c-0.5-0.8-0.7-1.4-0.8-2.8h1.8c0,0.9,0.2,1.5,0.6,2.1c1,1.3,2.6,1.9,5,1.9c3.1,0,5.1-1.3,5.1-3.2c0-1.5-1-2.2-3.8-2.6l-2.5-0.4
			c-2.2-0.3-3.1-0.6-4-1.1c-1.2-0.6-1.8-1.6-1.8-3c0-2.7,2.6-4.4,6.6-4.4c2.3,0,4.1,0.6,5.3,1.7c0.8,0.8,1.1,1.6,1.3,2.9H254.2z"/>
		<path class="st1" d="M259.6,162.6v-15.3h13v1.4h-11.3v5.4H272v1.4h-10.6v5.6h11.5v1.4H259.6z"/>
		<path class="st1" d="M290.8,162.6l-0.2-1.7v-0.1v-0.7v-0.4c-1.2,2.2-3.4,3.2-6.5,3.2c-5.4,0-8.9-3.1-8.9-7.9c0-2.6,1.1-4.9,3-6.3
			c1.5-1.1,3.5-1.7,5.9-1.7c2.5,0,4.5,0.7,6,2c1,0.9,1.4,1.7,1.8,3.1h-1.8c-0.8-2.4-3-3.8-6-3.8c-4.4,0-7.2,2.6-7.2,6.7
			c0,4,2.7,6.5,7,6.5c2.3,0,4.1-0.8,5.3-2.2c0.8-1,1.1-1.9,1.2-3.3H285v-1.3h7.1v7.9H290.8z"/>
		<path class="st1" d="M315.2,160.6c-1.8,1.6-3.7,2.3-6.2,2.3c-3.6,0-6.1-1.9-6.1-4.6c0-0.9,0.4-1.9,1-2.4c0.8-0.7,1.4-1.1,3.3-2.1
			c-1.5-1.3-2-2.1-2-3.3c0-1.7,1.6-3,3.9-3c2.2,0,3.9,1.3,3.9,3c0,0.9-0.4,1.8-1.1,2.3c-0.5,0.4-0.8,0.6-2.2,1.3l5.4,4.6
			c0.6-1,1-2,1.2-3.2h1.5c-0.2,1.5-0.6,2.7-1.6,4.1l3.5,3h-2.1L315.2,160.6z M308.3,154.7c-2.7,1.2-3.8,2.2-3.8,3.6
			c0,0.9,0.6,1.9,1.4,2.6c0.7,0.5,1.9,0.8,3.2,0.8c2,0,3.6-0.6,5.1-2L308.3,154.7z M309.7,152.5c1.2-0.7,1.8-1.4,1.8-2.2
			c0-1-1.1-1.7-2.4-1.7c-1.3,0-2.3,0.8-2.3,1.7c0,0.8,0.5,1.6,1.2,2.2l0.7,0.6L309.7,152.5z"/>
		<path class="st1" d="M339.3,151.6c-0.2-2.2-1.9-3.3-5-3.3c-3,0-4.9,1.2-4.9,3c0,0.9,0.4,1.5,1.2,1.9c0.5,0.2,1.2,0.4,2.4,0.6
			l2.8,0.4c2.3,0.4,3.4,0.7,4.2,1.3c0.9,0.6,1.4,1.6,1.4,2.8c0,2.8-2.6,4.6-6.9,4.6c-3.1,0-5.4-0.9-6.5-2.5
			c-0.5-0.8-0.7-1.4-0.8-2.8h1.8c0,0.9,0.2,1.5,0.6,2.1c1,1.3,2.6,1.9,5,1.9c3.1,0,5.1-1.3,5.1-3.2c0-1.5-1-2.2-3.8-2.6l-2.5-0.4
			c-2.2-0.3-3.1-0.6-4-1.1c-1.2-0.6-1.8-1.6-1.8-3c0-2.7,2.6-4.4,6.6-4.4c2.3,0,4.1,0.6,5.3,1.7c0.8,0.8,1.1,1.6,1.3,2.9H339.3z"/>
		<path class="st1" d="M344.7,147.3h7.7c1.8,0,3,0.3,3.9,1.1c1,0.8,1.6,2,1.6,3.4c0,1.4-0.6,2.7-1.6,3.5c-1,0.7-2.2,1-4.2,1h-5.6
			v6.3h-1.7V147.3z M351.8,154.9c1.5,0,2.3-0.1,3-0.5c0.9-0.5,1.4-1.3,1.4-2.6c0-2-1.3-3.1-3.8-3.1h-6v6.1H351.8z"/>
		<path class="st1" d="M360.7,162.6v-15.3h13v1.4h-11.3v5.4H373v1.4h-10.6v5.6h11.5v1.4H360.7z"/>
	</g>
</g>
<g>
	<path class="st2" d="M98.7,120.9V78.7h24.9c12.2,0,20.9,8.4,20.9,20.7c0,12.3-8.8,21.6-20.9,21.6H98.7z M123.6,111.9
		c6.9,0,11.9-5.1,11.9-12c0-7-5-12.1-11.9-12.1h-15.9v24.1H123.6z"/>
	<path class="st2" d="M177.2,103.9l-7.7-13l-17.7,30.1h-10.3l24-40c1-1.7,2.4-2.9,4.4-2.9c2,0,3.3,1.2,4.4,2.9l24,40h-10.9l-5.9-10"
		/>
	<path class="st2" d="M207.5,120.9V87.7H192v-9.1h40.1v9.1h-15.5v33.2H207.5z"/>
	<path class="st2" d="M261.2,103.9l-7.7-13l-17.7,30.1h-10.3l24-40c1-1.7,2.4-2.9,4.4-2.9c2,0,3.3,1.2,4.4,2.9l24,40h-10.9l-5.9-10"
		/>
</g>
<g>
	<g>
		<rect x="22.8" y="89.6" class="st3" width="9.2" height="9.2"/>
		<rect x="7.3" y="100.2" class="st3" width="6.5" height="6.5"/>
		<g>
			<rect x="38.5" y="78.5" class="st3" width="11.5" height="11.5"/>
			
				<rect x="38.5" y="96.7" transform="matrix(-1 -4.544066e-11 4.544066e-11 -1 88.5819 204.8782)" class="st3" width="11.5" height="11.5"/>
		</g>
		
			<rect x="56.5" y="89.6" transform="matrix(-1 -4.378421e-11 4.378421e-11 -1 122.2618 188.4552)" class="st3" width="9.2" height="9.2"/>
		
			<rect x="74.7" y="99.7" transform="matrix(-1 -4.677737e-11 4.677737e-11 -1 155.9417 206.032)" class="st3" width="6.5" height="6.5"/>
	</g>
	<g>
		<rect x="310.9" y="89.6" class="st3" width="9.2" height="9.2"/>
		<rect x="295.4" y="100.2" class="st3" width="6.5" height="6.5"/>
		<g>
			<rect x="326.6" y="78.4" class="st3" width="11.5" height="11.5"/>
			
				<rect x="326.6" y="96.6" transform="matrix(-1 -4.386281e-11 4.386281e-11 -1 664.6626 204.8044)" class="st3" width="11.5" height="11.5"/>
		</g>
		
			<rect x="344.6" y="89.6" transform="matrix(-1 -4.319224e-11 4.319224e-11 -1 698.3425 188.3814)" class="st3" width="9.2" height="9.2"/>
		
			<rect x="362.7" y="99.7" transform="matrix(-1 -4.510671e-11 4.510671e-11 -1 732.0224 205.9582)" class="st3" width="6.5" height="6.5"/>
	</g>
	<rect x="165.6" y="102.9" class="st3" width="7.6" height="7"/>
	<rect x="249.7" y="102.9" class="st3" width="7.6" height="7"/>
</g>
<g>
	<g>
		<g>
			<path class="st4" d="M22.8,58.4V16.2h38.4v9.1H31.8v24.1h29.4v9.1H22.8z"/>
			<path class="st4" d="M75.4,30.3v28.1h-8.6V21c0-3.3,1.7-5.3,4.5-5.3c1.3,0,2.4,0.5,3.7,1.7l27.7,26.6V15.8h8.7v37.9
				c0,3.4-1.9,5.4-4.5,5.4c-1.4,0-2.5-0.5-3.7-1.7L75.4,30.3z"/>
			<path class="st4" d="M118,58.4V16.2h38.4v9.1H127v24.1h29.4v9.1H118z"/>
			<path class="st4" d="M199.9,58.4l-10.3-11.5h-13.1v-7.7h16.4c4.4,0,6.9-2.6,6.9-7.1s-2.6-6.9-6.9-6.9h-21.7v33.2h-9V16.2h30.7
				c9.9,0,15.8,6.1,15.8,15.7c0,6.9-3.3,11.7-8.5,13.8l12.7,12.7H199.9z"/>
			<path class="st4" d="M234.6,58.4c-12,0-20.9-9.3-20.9-21.6c0-12.4,8.8-20.7,20.9-20.7h23.3v9.1h-23.3c-6.8,0-11.8,5.1-11.8,12.1
				c0,7,4.9,12,11.8,12h16.9v-8.8h-17.9v-7.2h26.9v25.1H234.6z"/>
			<path class="st4" d="M285.9,58.4V43.1l-22-26.9H276l14.8,18.7l14.8-18.7h11.5L295,43.1v15.4H285.9z"/>
			<path class="st4" d="M319.7,40.6V16h5.3v24.6H319.7z"/>
			<path class="st4" d="M334.1,24.2v16.4h-5V18.8c0-1.9,1-3.1,2.6-3.1c0.8,0,1.4,0.3,2.1,1L350,32.1V15.7h5.1v22.1
				c0,2-1.1,3.2-2.6,3.2c-0.8,0-1.5-0.3-2.2-1L334.1,24.2z"/>
		</g>
		<rect x="132.3" y="33.4" class="st4" width="7.7" height="7.2"/>
		<rect x="146.9" y="33.4" class="st4" width="7.7" height="7.2"/>
		<rect x="37.1" y="33.4" class="st4" width="7.7" height="7.2"/>
		<rect x="51.8" y="33.4" class="st4" width="7.7" height="7.2"/>
	</g>
</g>
</svg>
